<?xml version="1.0" encoding="UTF-8"?>
<svg xmlns="http://www.w3.org/2000/svg" xmlns:xlink="http://www.w3.org/1999/xlink" width="72pt" height="72pt" viewBox="0 0 72 72" version="1.1">
<g id="surface26335">
<path style=" stroke:none;fill-rule:nonzero;fill:rgb(90.196079%,29.019609%,9.803922%);fill-opacity:1;" d="M 39 25.5 L 27 25.5 C 21.199219 25.5 16.5 20.800781 16.5 15 C 16.5 9.199219 21.199219 4.5 27 4.5 L 39 4.5 Z M 39 25.5 "/>
<path style=" stroke:none;fill-rule:nonzero;fill:rgb(48.627451%,30.19608%,100%);fill-opacity:1;" d="M 37.5 46.5 L 27 46.5 C 21.199219 46.5 16.5 41.800781 16.5 36 C 16.5 30.199219 21.199219 25.5 27 25.5 L 37.5 25.5 Z M 37.5 46.5 "/>
<path style=" stroke:none;fill-rule:nonzero;fill:rgb(40.000001%,73.333335%,41.568628%);fill-opacity:1;" d="M 27 67.5 C 21.199219 67.5 16.5 62.800781 16.5 57 C 16.5 51.199219 21.199219 46.5 27 46.5 L 37.5 46.5 L 37.5 57 C 37.5 62.800781 32.800781 67.5 27 67.5 Z M 27 67.5 "/>
<path style=" stroke:none;fill-rule:nonzero;fill:rgb(100%,43.921569%,26.274511%);fill-opacity:1;" d="M 48 25.5 L 37.5 25.5 L 37.5 4.5 L 48 4.5 C 53.800781 4.5 58.5 9.199219 58.5 15 C 58.5 20.800781 53.800781 25.5 48 25.5 Z M 48 25.5 "/>
<path style=" stroke:none;fill-rule:nonzero;fill:rgb(16.078432%,71.372551%,96.470588%);fill-opacity:1;" d="M 58.5 36 C 58.5 41.800781 53.800781 46.5 48 46.5 C 42.199219 46.5 37.5 41.800781 37.5 36 C 37.5 30.199219 42.199219 25.5 48 25.5 C 53.800781 25.5 58.5 30.199219 58.5 36 Z M 58.5 36 "/>
</g>
</svg>
