<?xml version="1.0" encoding="UTF-8"?>
<svg xmlns="http://www.w3.org/2000/svg" xmlns:xlink="http://www.w3.org/1999/xlink" width="72pt" height="72pt" viewBox="0 0 72 72" version="1.1">
<defs>
<filter id="alpha" filterUnits="objectBoundingBox" x="0%" y="0%" width="100%" height="100%">
  <feColorMatrix type="matrix" in="SourceGraphic" values="0 0 0 0 1 0 0 0 0 1 0 0 0 0 1 0 0 0 1 0"/>
</filter>
<mask id="mask0">
  <g filter="url(#alpha)">
<rect x="0" y="0" width="72" height="72" style="fill:rgb(0%,0%,0%);fill-opacity:0.3;stroke:none;"/>
  </g>
</mask>
<clipPath id="clip1">
  <rect x="0" y="0" width="72" height="72"/>
</clipPath>
<g id="surface19887" clip-path="url(#clip1)">
<path style=" stroke:none;fill-rule:nonzero;fill:rgb(0%,0%,0%);fill-opacity:1;" d="M 66 36 C 66 52.570312 52.570312 66 36 66 C 19.429688 66 6 52.570312 6 36 C 6 19.429688 19.429688 6 36 6 C 52.570312 6 66 19.429688 66 36 Z M 66 36 "/>
</g>
</defs>
<g id="surface19882">
<use xlink:href="#surface19887" mask="url(#mask0)"/>
<path style=" stroke:none;fill-rule:nonzero;fill:rgb(0%,0%,0%);fill-opacity:1;" d="M 32.699219 6.300781 C 18.898438 7.800781 7.800781 18.898438 6.300781 32.398438 C 4.800781 46.5 12.898438 59.101562 25.199219 63.898438 C 26.101562 64.199219 27 63.601562 27 62.398438 L 27 57.601562 C 27 57.601562 25.800781 57.898438 24.300781 57.898438 C 20.101562 57.898438 18.300781 54.300781 18 52.199219 C 17.699219 51 17.101562 50.101562 16.199219 49.199219 C 15.300781 48.898438 15 48.898438 15 48.601562 C 15 48 15.898438 48 16.199219 48 C 18 48 19.5 50.101562 20.101562 51 C 21.601562 53.398438 23.398438 54 24.300781 54 C 25.5 54 26.398438 53.699219 27 53.398438 C 27.300781 51.300781 28.199219 49.199219 30 48 C 23.101562 46.5 18 42.601562 18 36 C 18 32.699219 19.5 29.398438 21.601562 27 C 21.300781 26.398438 21 24.898438 21 22.800781 C 21 21.601562 21 19.800781 21.898438 18 C 21.898438 18 26.101562 18 30.300781 21.898438 C 31.800781 21.300781 33.898438 21 36 21 C 38.101562 21 40.199219 21.300781 42 21.898438 C 45.898438 18 50.398438 18 50.398438 18 C 51 19.800781 51 21.601562 51 22.800781 C 51 25.199219 50.699219 26.398438 50.398438 27 C 52.5 29.398438 54 32.398438 54 36 C 54 42.601562 48.898438 46.5 42 48 C 43.800781 49.5 45 52.199219 45 54.898438 L 45 62.699219 C 45 63.601562 45.898438 64.5 47.101562 64.199219 C 58.199219 59.699219 66 48.898438 66 36.300781 C 66 18.300781 50.699219 4.199219 32.699219 6.300781 Z M 32.699219 6.300781 "/>
</g>
</svg>
