<?xml version="1.0" encoding="UTF-8"?>
<svg xmlns="http://www.w3.org/2000/svg" xmlns:xlink="http://www.w3.org/1999/xlink" width="72pt" height="72pt" viewBox="0 0 72 72" version="1.1">
<g id="surface28020">
<path style=" stroke:none;fill-rule:nonzero;fill:rgb(20%,76.862746%,50.588238%);fill-opacity:1;" d="M 48.195312 34.3125 L 44.203125 33.425781 L 47.308594 37.855469 L 47.308594 51.601562 L 57.953125 42.734375 L 57.953125 27.660156 L 53.074219 29.433594 Z M 48.195312 34.3125 "/>
<path style=" stroke:none;fill-rule:nonzero;fill:rgb(20%,76.862746%,50.588238%);fill-opacity:1;" d="M 23.359375 34.3125 L 27.351562 33.425781 L 24.246094 37.855469 L 24.246094 51.601562 L 13.605469 42.734375 L 13.605469 27.660156 L 18.484375 29.433594 Z M 23.359375 34.3125 "/>
<path style=" stroke:none;fill-rule:nonzero;fill:rgb(20%,76.862746%,50.588238%);fill-opacity:1;" d="M 25.578125 38.746094 L 29.125 33.425781 L 31.34375 34.753906 L 40.210938 34.753906 L 42.429688 33.425781 L 45.976562 38.746094 L 45.976562 58.695312 L 43.316406 62.683594 L 40.210938 65.789062 L 31.339844 65.789062 L 28.234375 62.683594 L 25.574219 58.695312 L 25.574219 38.746094 Z M 25.578125 38.746094 "/>
<path style=" stroke:none;fill-rule:nonzero;fill:rgb(20%,76.862746%,50.588238%);fill-opacity:1;" d="M 47.308594 60.023438 L 53.074219 54.261719 L 53.074219 48.496094 L 47.308594 53.375 Z M 47.308594 60.023438 "/>
<path style=" stroke:none;fill-rule:nonzero;fill:rgb(20%,76.862746%,50.588238%);fill-opacity:1;" d="M 24.246094 60.023438 L 18.484375 54.261719 L 18.484375 48.496094 L 24.246094 53.375 Z M 24.246094 60.023438 "/>
<path style=" stroke:none;fill-rule:nonzero;fill:rgb(20.784314%,28.627452%,36.862746%);fill-opacity:1;" d="M 36.664062 28.714844 L 43.457031 12.261719 L 45.089844 16.136719 L 39.769531 32.980469 L 36.664062 32.980469 Z M 28.261719 11.871094 L 34.890625 29 L 34.890625 32.980469 L 32.230469 32.980469 L 26.464844 16.136719 Z M 28.261719 11.871094 "/>
<path style=" stroke:none;fill-rule:nonzero;fill:rgb(20%,76.862746%,50.588238%);fill-opacity:1;" d="M 13.160156 25.886719 L 32.230469 32.980469 L 32.675781 32.980469 L 26.910156 16.136719 L 10.5 14.804688 Z M 58.839844 25.886719 L 39.769531 32.980469 L 39.324219 32.980469 L 44.648438 16.136719 L 61.5 14.804688 Z M 58.839844 25.886719 "/>
<path style=" stroke:none;fill-rule:nonzero;fill:rgb(20.784314%,28.627452%,36.862746%);fill-opacity:1;" d="M 55.292969 13.917969 L 45.976562 14.804688 L 44.136719 10.617188 L 45.34375 7.714844 L 49.089844 7.714844 Z M 55.292969 13.917969 "/>
<path style=" stroke:none;fill-rule:nonzero;fill:rgb(20.784314%,28.627452%,36.862746%);fill-opacity:1;" d="M 27.613281 10.175781 L 25.578125 14.804688 L 16.261719 13.917969 L 22.46875 7.714844 L 26.65625 7.714844 Z M 27.613281 10.175781 "/>
<path style=" stroke:none;fill-rule:nonzero;fill:rgb(20.784314%,28.627452%,36.862746%);fill-opacity:1;" d="M 17.429688 15.375 L 27.007812 16.113281 L 32.757812 32.988281 L 32.167969 32.988281 L 25.976562 30.703125 Z M 17.429688 15.375 "/>
<path style=" stroke:none;fill-rule:nonzero;fill:rgb(20.784314%,28.627452%,36.862746%);fill-opacity:1;" d="M 54.425781 15.375 L 44.546875 16.113281 L 39.09375 32.988281 L 39.832031 32.972656 L 45.578125 30.851562 Z M 54.425781 15.375 "/>
<path style=" stroke:none;fill-rule:nonzero;fill:rgb(20.784314%,28.627452%,36.862746%);fill-opacity:1;" d="M 28.335938 34.539062 L 29.070312 33.359375 L 31.578125 34.539062 L 40.421875 34.539062 L 42.335938 33.359375 L 43.222656 34.539062 L 35.78125 47.214844 Z M 28.335938 34.539062 "/>
<path style=" stroke:none;fill-rule:nonzero;fill:rgb(20%,76.862746%,50.588238%);fill-opacity:1;" d="M 28.230469 7.714844 L 35.734375 27.101562 L 43.742188 7.714844 Z M 28.230469 7.714844 "/>
</g>
</svg>
