<?xml version="1.0" encoding="UTF-8"?>
<svg xmlns="http://www.w3.org/2000/svg" xmlns:xlink="http://www.w3.org/1999/xlink" width="72pt" height="72pt" viewBox="0 0 72 72" version="1.1">
<g id="surface18897">
<path style=" stroke:none;fill-rule:nonzero;fill:rgb(94.117647%,38.431373%,57.254905%);fill-opacity:1;" d="M 59.800781 38.933594 C 57.492188 38.945312 55.496094 39.5 53.820312 40.324219 C 53.210938 39.101562 52.589844 38.027344 52.484375 37.226562 C 52.363281 36.296875 52.222656 35.738281 52.371094 34.625 C 52.515625 33.515625 53.160156 31.941406 53.152344 31.820312 C 53.140625 31.703125 53.007812 31.136719 51.675781 31.125 C 50.347656 31.117188 49.207031 31.382812 49.074219 31.734375 C 48.941406 32.085938 48.683594 32.875 48.523438 33.699219 C 48.292969 34.90625 45.867188 39.210938 44.492188 41.460938 C 44.042969 40.582031 43.660156 39.808594 43.582031 39.195312 C 43.460938 38.261719 43.320312 37.703125 43.464844 36.59375 C 43.613281 35.480469 44.257812 33.90625 44.246094 33.789062 C 44.238281 33.667969 44.101562 33.101562 42.773438 33.09375 C 41.441406 33.085938 40.304688 33.347656 40.171875 33.699219 C 40.035156 34.050781 39.890625 34.871094 39.621094 35.667969 C 39.347656 36.460938 36.128906 43.636719 35.28125 45.5 C 34.851562 46.449219 34.480469 47.210938 34.214844 47.726562 C 34.214844 47.726562 34.195312 47.761719 34.171875 47.820312 C 33.945312 48.261719 33.808594 48.503906 33.808594 48.503906 C 33.808594 48.503906 33.8125 48.507812 33.816406 48.515625 C 33.632812 48.839844 33.441406 49.140625 33.347656 49.140625 C 33.28125 49.140625 33.148438 48.277344 33.375 47.089844 C 33.855469 44.597656 35.007812 40.714844 34.996094 40.582031 C 34.992188 40.511719 35.210938 39.835938 34.246094 39.480469 C 33.304688 39.136719 32.972656 39.710938 32.886719 39.710938 C 32.804688 39.714844 32.742188 39.914062 32.742188 39.914062 C 32.742188 39.914062 33.789062 35.546875 30.746094 35.546875 C 28.84375 35.546875 26.210938 37.628906 24.914062 39.515625 C 24.09375 39.960938 22.339844 40.917969 20.484375 41.941406 C 19.769531 42.332031 19.039062 42.734375 18.347656 43.113281 C 18.300781 43.0625 18.253906 43.011719 18.207031 42.957031 C 14.515625 39.023438 7.699219 36.242188 7.988281 30.949219 C 8.09375 29.027344 8.761719 23.964844 21.089844 17.824219 C 31.183594 12.792969 39.269531 14.175781 40.664062 17.242188 C 42.660156 21.628906 36.34375 29.773438 25.859375 30.949219 C 21.867188 31.398438 19.761719 29.851562 19.238281 29.273438 C 18.6875 28.667969 18.605469 28.640625 18.398438 28.753906 C 18.066406 28.941406 18.277344 29.476562 18.398438 29.792969 C 18.710938 30.609375 19.996094 32.054688 22.1875 32.773438 C 24.113281 33.40625 28.804688 33.753906 34.476562 31.558594 C 40.828125 29.101562 45.789062 22.265625 44.332031 16.550781 C 42.851562 10.738281 33.214844 8.828125 24.09375 12.070312 C 18.660156 13.996094 12.785156 17.023438 8.558594 20.976562 C 3.535156 25.675781 2.734375 29.765625 3.066406 31.472656 C 4.238281 37.546875 12.605469 41.5 15.957031 44.429688 C 15.792969 44.519531 15.636719 44.605469 15.496094 44.683594 C 13.816406 45.515625 7.433594 48.851562 5.839844 52.378906 C 4.027344 56.378906 6.128906 59.25 7.515625 59.636719 C 11.820312 60.835938 16.234375 58.679688 18.609375 55.140625 C 20.984375 51.601562 20.695312 46.992188 19.605469 44.890625 C 19.589844 44.863281 19.578125 44.839844 19.5625 44.8125 C 19.996094 44.554688 20.4375 44.296875 20.878906 44.035156 C 21.730469 43.535156 22.570312 43.066406 23.300781 42.671875 C 22.890625 43.785156 22.59375 45.125 22.4375 47.058594 C 22.253906 49.332031 23.1875 52.265625 24.40625 53.421875 C 24.941406 53.929688 25.585938 53.941406 25.996094 53.941406 C 27.414062 53.941406 28.058594 52.761719 28.773438 51.367188 C 29.644531 49.65625 30.421875 47.664062 30.421875 47.664062 C 30.421875 47.664062 29.449219 53.042969 32.097656 53.042969 C 33.0625 53.042969 34.035156 51.792969 34.46875 51.15625 C 34.46875 51.160156 34.46875 51.164062 34.46875 51.164062 C 34.46875 51.164062 34.492188 51.121094 34.542969 51.039062 C 34.644531 50.886719 34.699219 50.789062 34.699219 50.789062 C 34.699219 50.789062 34.703125 50.78125 34.707031 50.761719 C 35.09375 50.089844 35.953125 48.550781 37.246094 46.019531 C 38.914062 42.746094 40.511719 38.644531 40.511719 38.644531 C 40.511719 38.644531 40.660156 39.648438 41.148438 41.304688 C 41.433594 42.28125 42.042969 43.359375 42.523438 44.394531 C 42.136719 44.929688 41.902344 45.238281 41.902344 45.238281 C 41.902344 45.238281 41.902344 45.246094 41.90625 45.253906 C 41.597656 45.664062 41.25 46.109375 40.886719 46.539062 C 39.570312 48.109375 38.003906 49.898438 37.792969 50.414062 C 37.546875 51.023438 37.605469 51.472656 38.082031 51.832031 C 38.433594 52.09375 39.054688 52.136719 39.703125 52.09375 C 40.886719 52.015625 41.71875 51.71875 42.128906 51.542969 C 42.769531 51.316406 43.515625 50.960938 44.214844 50.445312 C 45.503906 49.496094 46.285156 48.136719 46.210938 46.339844 C 46.167969 45.347656 45.851562 44.363281 45.453125 43.4375 C 45.570312 43.269531 45.683594 43.097656 45.804688 42.925781 C 47.839844 39.949219 49.417969 36.679688 49.417969 36.679688 C 49.417969 36.679688 49.566406 37.683594 50.054688 39.34375 C 50.300781 40.179688 50.789062 41.097656 51.226562 41.992188 C 49.3125 43.550781 48.125 45.355469 47.714844 46.542969 C 46.953125 48.734375 47.546875 49.726562 48.667969 49.953125 C 49.175781 50.054688 49.890625 49.824219 50.429688 49.597656 C 51.101562 49.375 51.90625 49.003906 52.660156 48.449219 C 53.949219 47.5 55.191406 46.171875 55.117188 44.371094 C 55.082031 43.554688 54.859375 42.742188 54.558594 41.960938 C 56.183594 41.285156 58.28125 40.910156 60.957031 41.222656 C 66.699219 41.890625 67.824219 45.476562 67.609375 46.976562 C 67.394531 48.476562 66.191406 49.300781 65.785156 49.550781 C 65.386719 49.796875 65.261719 49.886719 65.296875 50.070312 C 65.34375 50.339844 65.53125 50.328125 65.875 50.269531 C 66.347656 50.191406 68.886719 49.050781 68.996094 46.28125 C 69.132812 42.761719 65.765625 38.902344 59.800781 38.933594 Z M 15.554688 53.851562 C 13.652344 55.925781 10.996094 56.707031 9.859375 56.046875 C 8.628906 55.335938 9.117188 52.28125 11.449219 50.078125 C 12.871094 48.738281 14.707031 47.503906 15.925781 46.742188 C 16.203125 46.574219 16.609375 46.332031 17.101562 46.035156 C 17.183594 45.988281 17.230469 45.960938 17.230469 45.960938 L 17.230469 45.957031 C 17.328125 45.902344 17.425781 45.84375 17.523438 45.78125 C 18.375 48.914062 17.550781 51.671875 15.554688 53.851562 Z M 29.40625 44.433594 C 28.746094 46.046875 27.359375 50.179688 26.515625 49.957031 C 25.789062 49.765625 25.351562 46.628906 26.371094 43.539062 C 26.882812 41.980469 27.984375 40.125 28.628906 39.402344 C 29.664062 38.242188 30.808594 37.863281 31.085938 38.332031 C 31.4375 38.933594 29.824219 43.421875 29.40625 44.433594 Z M 40.851562 49.894531 C 40.570312 50.042969 40.3125 50.132812 40.195312 50.0625 C 40.105469 50.011719 40.308594 49.816406 40.308594 49.816406 C 40.308594 49.816406 41.742188 48.277344 42.304688 47.574219 C 42.632812 47.167969 43.011719 46.683594 43.425781 46.144531 C 43.429688 46.195312 43.429688 46.25 43.429688 46.304688 C 43.429688 48.148438 41.644531 49.394531 40.851562 49.894531 Z M 49.667969 47.882812 C 49.457031 47.734375 49.492188 47.253906 50.179688 45.753906 C 50.449219 45.164062 51.070312 44.171875 52.140625 43.222656 C 52.265625 43.613281 52.339844 43.988281 52.339844 44.335938 C 52.324219 46.65625 50.667969 47.523438 49.667969 47.882812 Z M 49.667969 47.882812 "/>
</g>
</svg>
