<?xml version="1.0" encoding="UTF-8"?>
<svg xmlns="http://www.w3.org/2000/svg" xmlns:xlink="http://www.w3.org/1999/xlink" width="72pt" height="72pt" viewBox="0 0 72 72" version="1.1">
<g id="surface17347">
<path style=" stroke:none;fill-rule:nonzero;fill:rgb(9.803922%,46.27451%,82.352942%);fill-opacity:1;" d="M 9 9 L 63 9 L 63 63 L 9 63 Z M 9 9 "/>
<path style=" stroke:none;fill-rule:nonzero;fill:rgb(100%,100%,100%);fill-opacity:1;" d="M 41.234375 33 L 21.339844 33 L 21.339844 37.894531 L 28.476562 37.894531 L 28.476562 60 L 34.128906 60 L 34.128906 37.894531 L 41.234375 37.894531 Z M 41.234375 33 "/>
<path style=" stroke:none;fill-rule:nonzero;fill:rgb(100%,100%,100%);fill-opacity:1;" d="M 58.789062 39.125 C 58.789062 39.125 56.109375 37.339844 53.082031 37.339844 C 50.050781 37.339844 48.960938 38.777344 48.960938 40.316406 C 48.960938 44.289062 60.03125 43.890625 60.03125 51.886719 C 60.03125 64.199219 43.152344 58.738281 43.152344 58.738281 L 43.152344 52.828125 C 43.152344 52.828125 46.378906 55.261719 50.25 55.261719 C 54.121094 55.261719 53.972656 52.730469 53.972656 52.382812 C 53.972656 48.710938 43.003906 48.710938 43.003906 40.566406 C 43.003906 29.496094 58.988281 33.863281 58.988281 33.863281 Z M 58.789062 39.125 "/>
</g>
</svg>
