<?xml version="1.0" encoding="UTF-8"?>
<svg xmlns="http://www.w3.org/2000/svg" width="72pt" height="72pt" viewBox="0 0 72 72" version="1.1">
<defs>
<linearGradient id="vitelinear0" gradientUnits="userSpaceOnUse" x1="13.3154" y1="514.906189" x2="38.004501" y2="481.376495" gradientTransform="matrix(1.5,0,0,-1.5,0,771)">
<stop offset="0" style="stop-color:rgb(25.490198%,81.960785%,100%);stop-opacity:1;"/>
<stop offset="1" style="stop-color:rgb(57.254905%,19.215687%,74.509805%);stop-opacity:1;"/>
</linearGradient>
<linearGradient id="vitelinear1" gradientUnits="userSpaceOnUse" x1="25.5021" y1="508.763489" x2="37.1311" y2="428.98999" gradientTransform="matrix(1.5,0,0,-1.5,0,771)">
<stop offset="0" style="stop-color:rgb(99.607843%,81.960785%,0%);stop-opacity:1;"/>
<stop offset="1" style="stop-color:rgb(89.019608%,37.64706%,0.392157%);stop-opacity:1;"/>
</linearGradient>
</defs>
<g id="surface20024">
<path style=" stroke:none;fill-rule:nonzero;fill:url(#vitelinear0);" d="M 67.289062 14.964844 L 37.535156 68.171875 C 36.917969 69.269531 35.339844 69.277344 34.71875 68.183594 L 4.371094 14.96875 C 3.691406 13.777344 4.710938 12.335938 6.0625 12.574219 L 35.851562 17.902344 C 36.039062 17.933594 36.234375 17.933594 36.425781 17.898438 L 65.589844 12.582031 C 66.933594 12.335938 67.957031 13.769531 67.289062 14.964844 Z M 67.289062 14.964844 "/>
<path style=" stroke:none;fill-rule:nonzero;fill:url(#vitelinear1);" d="M 50.359375 4.515625 L 28.527344 8.792969 C 28.171875 8.863281 27.90625 9.167969 27.882812 9.53125 L 26.539062 32.214844 C 26.507812 32.746094 27 33.164062 27.519531 33.042969 L 33.597656 31.640625 C 34.167969 31.507812 34.679688 32.007812 34.566406 32.582031 L 32.757812 41.425781 C 32.636719 42.019531 33.195312 42.527344 33.777344 42.351562 L 37.53125 41.210938 C 38.113281 41.035156 38.671875 41.542969 38.550781 42.140625 L 35.679688 56.03125 C 35.5 56.898438 36.65625 57.375 37.136719 56.628906 L 37.460938 56.128906 L 55.25 20.625 C 55.550781 20.03125 55.035156 19.355469 54.382812 19.480469 L 48.125 20.6875 C 47.539062 20.800781 47.039062 20.253906 47.203125 19.679688 L 51.285156 5.523438 C 51.453125 4.949219 50.949219 4.398438 50.359375 4.515625 Z M 50.359375 4.515625 "/>
</g>
</svg>
