<?xml version="1.0" encoding="UTF-8"?>
<svg xmlns="http://www.w3.org/2000/svg" xmlns:xlink="http://www.w3.org/1999/xlink" width="72pt" height="72pt" viewBox="0 0 72 72" version="1.1">
<g id="surface24305">
<path style=" stroke:none;fill-rule:nonzero;fill:rgb(0%,72.156864%,83.137256%);fill-opacity:1;" d="M 61.394531 23.339844 L 51.929688 32.804688 L 51.316406 32.445312 L 49.003906 31.078125 L 44.039062 28.15625 L 57.644531 14.535156 L 60.148438 20.414062 L 60.914062 22.214844 Z M 61.394531 23.339844 "/>
<path style=" stroke:none;fill-rule:nonzero;fill:rgb(0%,72.156864%,83.137256%);fill-opacity:1;" d="M 45.078125 15.976562 L 43.5 13.5 L 37.5 10.5 L 31.5 13.5 L 22.5 9 L 9 15 L 13.3125 40.007812 L 36.9375 39.75 Z M 45.078125 15.976562 "/>
<path style=" stroke:none;fill-rule:nonzero;fill:rgb(100%,91.764706%,0%);fill-opacity:1;" d="M 43.125 9.1875 L 30 22.5 L 40.09375 25.824219 L 55.015625 9.898438 Z M 43.125 9.1875 "/>
<path style=" stroke:none;fill-rule:nonzero;fill:rgb(61.176473%,80.000001%,39.607844%);fill-opacity:1;" d="M 55.6875 9.9375 L 55.015625 9.898438 L 39 25.5 L 44.035156 28.152344 L 57.648438 14.539062 Z M 55.6875 9.9375 "/>
<path style=" stroke:none;fill-rule:nonzero;fill:rgb(16.078432%,47.450981%,100%);fill-opacity:1;" d="M 63.179688 27.570312 L 56.070312 35.25 L 51.929688 32.804688 L 61.394531 23.339844 Z M 63.179688 27.570312 "/>
<path style=" stroke:none;fill-rule:nonzero;fill:rgb(0%,72.156864%,83.137256%);fill-opacity:1;" d="M 48 21 L 37.480469 38.160156 L 48.09375 53.410156 L 63.179688 44.429688 Z M 48 21 "/>
<path style=" stroke:none;fill-rule:nonzero;fill:rgb(11.764706%,53.333336%,89.803922%);fill-opacity:1;" d="M 36.9375 39.75 L 13.3125 40.007812 L 16.5 58.5 L 46.5 63 L 48.089844 53.414062 L 48.09375 53.410156 L 37.480469 38.160156 Z M 36.9375 39.75 "/>
<path style=" stroke:none;fill-rule:nonzero;fill:rgb(3.529412%,1.960784%,1.568628%);fill-opacity:1;" d="M 19.5 19.5 L 52.5 19.5 L 52.5 52.5 L 19.5 52.5 Z M 19.5 19.5 "/>
<path style=" stroke:none;fill-rule:nonzero;fill:rgb(0%,72.156864%,83.137256%);fill-opacity:1;" d="M 49.5 52.5 L 39 58.5 L 31.5 52.5 Z M 49.5 52.5 "/>
<path style=" stroke:none;fill-rule:nonzero;fill:rgb(100%,100%,100%);fill-opacity:1;" d="M 22.5 46.5 L 34.5 46.5 L 34.5 49.5 L 22.5 49.5 Z M 22.5 46.5 "/>
<path style=" stroke:none;fill-rule:nonzero;fill:rgb(100%,100%,100%);fill-opacity:1;" d="M 21.9375 23.8125 L 24.9375 23.8125 L 27.1875 31.6875 L 29.625 23.8125 L 31.875 23.8125 L 34.125 31.5 L 36 23.8125 L 39.1875 23.8125 L 35.4375 37.5 L 32.8125 37.5 L 30.375 30.375 L 28.3125 37.3125 L 25.6875 37.3125 Z M 21.9375 23.8125 "/>
<path style=" stroke:none;fill-rule:nonzero;fill:rgb(100%,100%,100%);fill-opacity:1;" d="M 47.625 27.375 L 49.125 25.125 C 49.125 25.125 47.335938 23.382812 43.6875 23.4375 C 40.449219 23.488281 39.328125 25.996094 39.375 27.375 C 39.417969 28.558594 39.375 30.375 43.6875 31.6875 C 44.886719 32.050781 45.632812 32.429688 46.09375 32.789062 C 46.835938 33.367188 46.519531 34.589844 45.601562 34.796875 C 44.5 35.042969 42.550781 35.113281 40.6875 33.375 L 38.8125 35.625 C 38.8125 35.625 41.625 37.875 44.8125 37.6875 C 48 37.5 49.875 35.25 49.6875 33.375 C 49.5 31.5 48.375 30.375 45.9375 29.4375 C 43.5 28.5 42.261719 28.8125 42.300781 27.070312 C 42.335938 25.527344 45 25.5 47.625 27.375 Z M 47.625 27.375 "/>
</g>
</svg>
